<svg id="Layer_1" enable-background="new 0 0 512 512" height="512" viewBox="0 0 512 512" width="512" xmlns="http://www.w3.org/2000/svg"><g><g><g fill="#f0e5e0"><path d="m158.5 259.5h-36.5c-16.845 0-30.5-13.655-30.5-30.5 0-16.845 13.655-30.5 30.5-30.5h36.5z"/><path d="m343.5 259.5h46.5c16.845 0 30.5-13.655 30.5-30.5 0-16.845-13.655-30.5-30.5-30.5h-56.5z"/><path d="m333.5 478.333h-147.833l3.723-85.833h18.11c2.761 0 5-2.239 5-5v-55.167h87v55.167c0 2.761 2.239 5 5 5h18.11z"/></g><path d="m138.5 118.5v121.5c0 64.893 52.606 117.5 117.5 117.5 64.893 0 117.5-52.606 117.5-117.5v-121.5z" fill="#faf2f3"/><path d="m373.5 118.5v121.5c0 32.44-13.15 61.82-34.42 83.08-21.26 21.27-50.64 34.42-83.08 34.42-5.08 0-10.09-.32-15-.95 26.45-3.37 50.15-15.53 68.08-33.47 21.27-21.26 34.42-50.64 34.42-83.08v-121.5z" fill="#f0e5e0"/><path d="m293 449.5c-24.667 12.333-49.333 12.333-74 0l-7.083 55h94.083z" fill="#c3aff0"/><path d="m434.5 472.5v12c0 11.046-8.954 20-20 20h-137.5v-26.65c0-24.82 7.52-49.16 22.03-69.3 3.89-5.39 8.39-10.83 13.58-16.05 21.25-21.37 54.07-39.12 103.72-35 0 0-28.471 3.48-37.317 33.814-.728 2.497.594 5.166 3.036 6.061 30.613 11.224 52.451 40.629 52.451 75.125z" fill="#6f6571"/><path d="m434.5 472.5v12c0 11.05-8.95 20-20 20h-30c11.05 0 20-8.95 20-20v-12c0-34.5-21.84-63.9-52.45-75.13-2.44-.89-3.76-3.56-3.04-6.06 7.18-24.6 27.26-31.54 34.59-33.28 10.01-1.25 20.89-1.51 32.73-.53 0 0-28.47 3.48-37.32 33.81-.72 2.5.6 5.17 3.04 6.06 30.61 11.23 52.45 40.63 52.45 75.13z" fill="#5d5360"/><path d="m235 477.85v26.65h-137.5c-11.046 0-20-8.954-20-20v-12c0-34.496 21.838-63.901 52.451-75.125 2.442-.895 3.764-3.564 3.036-6.061-8.846-30.334-37.317-33.814-37.317-33.814 49.65-4.12 82.47 13.63 103.72 35 5.19 5.22 9.69 10.66 13.58 16.05 14.51 20.14 22.03 44.48 22.03 69.3z" fill="#6f6571"/><path d="m212.5 349.18v38.32c0 2.76-2.24 5-5 5h-8.11c-21.25-21.37-54.07-39.12-103.72-35 0 0 11.81-47.05 59.71-56.81 4.93 8.17 10.83 15.68 17.54 22.39 11.19 11.19 24.63 20.14 39.58 26.1z" fill="#fc8d94"/><path d="m416.33 357.5c-49.65-4.12-82.47 13.63-103.72 35h-8.11c-2.76 0-5-2.24-5-5v-38.32c23.92-9.54 43.96-26.7 57.12-48.49 47.9 9.76 59.71 56.81 59.71 56.81z" fill="#fc8d94"/><path d="m416.33 357.5c-10.72-.89-20.65-.76-29.86.21-.8-2.94-9.24-31.63-36.03-47.81 2.2-2.96 4.26-6.04 6.18-9.21 47.9 9.76 59.71 56.81 59.71 56.81z" fill="#fc7585"/><path d="m403.5 137v64.65c-4.07-2.02-8.65-3.15-13.5-3.15h-16.5v30.5h-14.5c-8.52 0-15.5-6.97-15.5-15.5v-51.5c0-11.05-8.95-20-20-20h-15c-11.05 0-20 8.95-20 20v1.5c0 11.05-8.95 20-20 20h-25c-11.05 0-20-8.95-20-20v-1c0-11.05-8.95-20-20-20h-15c-11.05 0-20 8.95-20 20v51.5c0 6.53-4.18 12.09-10 14.14-1.57.56-3.25.86-5 .86h-15v-30.5h-16.5c-4.85 0-9.43 1.13-13.5 3.15v-64.65c0-55.23 44.77-100 100-100h7.83c4.29 0 8.1-2.73 9.47-6.79l.48-1.4c4.31-12.74 16.27-21.31 29.72-21.31 6.72 0 13.08 2.14 18.29 5.88 5.21 3.73 9.27 9.06 11.43 15.43l.48 1.4c1.37 4.06 5.18 6.79 9.47 6.79h7.83c55.23 0 100 44.77 100 100z" fill="#6f6571"/><path d="m403.5 137v64.65c-4.07-2.02-8.65-3.15-13.5-3.15h-16.5v-61.5c0-55.23-44.77-100-100-100h-7.83c-4.29 0-8.1-2.73-9.47-6.79l-.48-1.4c-2.16-6.37-6.22-11.7-11.43-15.43-1.05-.75-2.15-1.44-3.29-2.06 4.5-2.46 9.64-3.82 15-3.82 6.72 0 13.08 2.14 18.29 5.88 5.21 3.73 9.27 9.06 11.43 15.43l.48 1.4c1.37 4.06 5.18 6.79 9.47 6.79h7.83c55.23 0 100 44.77 100 100z" fill="#5d5360"/></g><g><path d="m214.563 291.076c2.544 2.161 5.201 4.081 7.938 5.79v12.134c0 4.142 3.357 7.5 7.5 7.5s7.5-3.358 7.5-7.5v-5.25c6.013 1.86 12.215 2.8 18.424 2.8 6.251 0 12.505-.951 18.576-2.837v5.287c0 4.142 3.357 7.5 7.5 7.5s7.5-3.358 7.5-7.5v-12.169c2.724-1.694 5.372-3.596 7.911-5.733 3.169-2.667 3.576-7.398.909-10.567-2.667-3.17-7.398-3.577-10.567-.91-18.782 15.805-44.887 15.813-63.481.022-3.157-2.681-7.89-2.294-10.571.862-2.682 3.157-2.297 7.89.861 10.571z"/><path d="m315.5 251.5c4.143 0 7.5-3.358 7.5-7.5v-15c0-4.142-3.357-7.5-7.5-7.5s-7.5 3.358-7.5 7.5v15c0 4.142 3.357 7.5 7.5 7.5z"/><path d="m196.5 251.5c4.143 0 7.5-3.358 7.5-7.5v-15c0-4.142-3.357-7.5-7.5-7.5s-7.5 3.358-7.5 7.5v15c0 4.142 3.357 7.5 7.5 7.5z"/><path d="m417.23 364.946c4.39-.538 7.463-4.969 6.374-9.272-.49-1.951-11.906-45.452-55.821-59.779 4.55-9.062 8.028-18.749 10.271-28.896h11.946c20.953 0 38-17.047 38-38 0-13.194-6.762-24.835-17-31.65v-60.349c0-59.276-48.225-107.5-107.5-107.5h-7.831c-1.072 0-2.023-.682-2.367-1.695l-.476-1.404c-5.352-15.791-20.152-26.401-36.826-26.401s-31.474 10.61-36.827 26.403l-.474 1.399c-.345 1.016-1.296 1.698-2.368 1.698h-7.831c-59.275 0-107.5 48.224-107.5 107.5v6c0 4.142 3.357 7.5 7.5 7.5s7.5-3.358 7.5-7.5v-6c0-51.005 41.495-92.5 92.5-92.5h7.831c7.504 0 14.164-4.775 16.574-11.884l.474-1.399c3.289-9.7 12.379-16.217 22.621-16.217s19.332 6.517 22.62 16.215l.476 1.404c2.409 7.106 9.069 11.881 16.573 11.881h7.831c51.005 0 92.5 41.495 92.5 92.5v54.478c-1.955-.312-3.958-.478-6-.478h-16.5c-4.143 0-7.5 3.358-7.5 7.5v23h-7c-4.411 0-8-3.589-8-8v-51.5c0-15.164-12.337-27.5-27.5-27.5h-15c-15.163 0-27.5 12.336-27.5 27.5v1.5c0 6.893-5.607 12.5-12.5 12.5h-25c-6.893 0-12.5-5.607-12.5-12.5v-1c0-15.164-12.337-27.5-27.5-27.5h-15c-15.163 0-27.5 12.336-27.5 27.5v51.5c0 4.136-3.364 7.5-7.5 7.5h-7.5v-23c0-4.142-3.357-7.5-7.5-7.5h-16.5c-2.042 0-4.045.167-6 .478v-13.478c0-4.142-3.357-7.5-7.5-7.5s-7.5 3.358-7.5 7.5v19.35c-10.238 6.815-17 18.456-17 31.65 0 20.953 17.047 38 38 38h11.946c2.243 10.148 5.722 19.836 10.272 28.898-43.917 14.329-55.333 57.825-55.822 59.776-.964 3.844 1.231 7.732 4.941 8.945.464.155.943.257 1.428.327 1.342.188 22.455 3.504 30.32 26.262-33.05 13.184-55.085 45.543-55.085 81.292v12c0 15.164 12.337 27.5 27.5 27.5h257c4.143 0 7.5-3.358 7.5-7.5s-3.357-7.5-7.5-7.5h-70v-19.15c0-23.75 7.129-46.197 20.612-64.912 3.947-5.47 8.259-10.567 12.815-15.15 18.366-18.47 41.034-29.325 67.655-32.445-5.631 5.66-10.708 13.374-13.77 23.87-1.832 6.279 1.529 12.958 7.653 15.204 28.433 10.423 47.535 37.784 47.535 68.083v12c0 6.893-5.607 12.5-12.5 12.5h-25c-4.143 0-7.5 3.358-7.5 7.5s3.357 7.5 7.5 7.5h25c15.163 0 27.5-12.336 27.5-27.5v-12c0-56.989-55.085-81.292-55.085-81.292 7.93-22.942 29.331-26.128 30.315-26.262zm-4.23-135.946c0 12.682-10.317 23-23 23h-9.579c.378-3.951.579-7.952.579-12v-3.5h9.5c4.143 0 7.5-3.358 7.5-7.5s-3.357-7.5-7.5-7.5h-9.5v-15.5h9c12.683 0 23 10.318 23 23zm-237-15v-51.5c0-6.893 5.607-12.5 12.5-12.5h15c6.893 0 12.5 5.607 12.5 12.5v1c0 15.164 12.337 27.5 27.5 27.5h25c15.163 0 27.5-12.336 27.5-27.5v-1.5c0-6.893 5.607-12.5 12.5-12.5h15c6.893 0 12.5 5.607 12.5 12.5v51.5c0 12.682 10.317 23 23 23h7v3.5c0 60.654-49.346 110-110 110s-110-49.346-110-110v-3.5h7.5c12.406 0 22.5-10.093 22.5-22.5zm-54 38c-12.683 0-23-10.318-23-23s10.317-23 23-23h9v15.5h-9.5c-4.143 0-7.5 3.358-7.5 7.5s3.357 7.5 7.5 7.5h9.5v3.5c0 4.048.201 8.049.579 12zm-15.317 97.431c5.711-12.381 18.852-32.848 45.288-40.207 13.035 19.525 31.412 35.191 53.029 44.89v30.886h-2.552c-25.378-24.371-57.542-36.308-95.765-35.569zm-21.683 135.069v-12c0-30.299 19.102-57.66 47.532-68.083 6.124-2.246 9.486-8.924 7.654-15.203-3.062-10.497-8.139-18.21-13.77-23.87 26.615 3.122 49.292 13.978 67.654 32.445 4.557 4.582 8.869 9.68 12.813 15.146 13.486 18.72 20.615 41.167 20.615 64.916v19.149h-130c-6.891 0-12.498-5.607-12.498-12.5zm184.5-6.65v19.15h-27v-19.15c0-4.324-.232-8.605-.647-12.843 4.707.815 9.426 1.232 14.145 1.232 4.72 0 9.44-.421 14.149-1.237-.415 4.24-.647 8.523-.647 12.848zm3.198-28.706c-11.099 2.766-22.304 2.771-33.395.006-3.681-16.216-10.498-31.45-20.251-44.989-1.53-2.12-3.127-4.171-4.752-6.187 3.426-2.232 5.7-6.089 5.7-10.474v-27.792c11.406 3.436 23.489 5.292 36 5.292s24.594-1.856 36-5.292v27.792c0 4.385 2.274 8.243 5.7 10.474-1.626 2.017-3.224 4.069-4.755 6.191-9.75 13.534-16.566 28.765-20.247 44.979zm36.853-64.144h-2.551v-30.886c21.617-9.699 39.994-25.366 53.03-44.891 26.673 7.397 39.716 27.824 45.351 40.21-38.258-.754-70.438 11.183-95.83 35.567z"/><path d="m202.5 462c-5.514 0-10 4.486-10 10s4.486 10 10 10 10-4.486 10-10-4.486-10-10-10z"/><path d="m309.5 462c-5.514 0-10 4.486-10 10s4.486 10 10 10 10-4.486 10-10-4.486-10-10-10z"/></g></g></svg>