<svg id="Capa_1" enable-background="new 0 0 512 512" height="512" viewBox="0 0 512 512" width="512" xmlns="http://www.w3.org/2000/svg"><g><path d="m497 63.565c-26.958 0-48.891-21.768-48.891-48.523 0-8.284-6.716-15-15-15s-15 6.716-15 15c0 26.756-21.933 48.523-48.892 48.523-8.284 0-15 6.716-15 15v.158c0 8.284 6.716 15 15 15 26.959 0 48.892 21.768 48.892 48.523 0 8.284 6.716 15 15 15s15-6.716 15-15c0-26.756 21.933-48.523 48.891-48.523 8.284 0 15-6.716 15-15v-.158c0-8.284-6.716-15-15-15z"/><path d="m302.246 254.792c-4.895 0-8.877-3.921-8.877-8.74 0-8.284-6.716-15-15-15s-15 6.716-15 15c0 4.819-3.982 8.74-8.878 8.74-8.284 0-15 6.716-15 15v.059c0 8.284 6.716 15 15 15 4.896 0 8.878 3.921 8.878 8.74 0 8.284 6.716 15 15 15s15-6.716 15-15c0-4.819 3.982-8.74 8.877-8.74 8.284 0 15-6.774 15-15.059s-6.716-15-15-15z"/><path d="m328.022 130.631c0-8.284-6.716-15-15-15h-156.9c-8.284 0-15 6.716-15 15s6.716 15 15 15h156.9c8.285 0 15-6.716 15-15z"/><path d="m313.022 11.658h-156.9c-8.284 0-15 6.716-15 15s6.716 15 15 15h156.9c8.284 0 15-6.716 15-15s-6.715-15-15-15z"/><path d="m62.672 78.645c0 8.284 6.716 15 15 15h176.81c8.284 0 15-6.716 15-15s-6.716-15-15-15h-176.81c-8.284 0-15 6.715-15 15z"/><path d="m317.014 379.195c-4.873-3.807-11.581-4.231-16.896-1.072-47.53 28.252-108.104 20.759-147.308-18.219-39.149-38.925-46.682-99.056-18.316-146.229 3.189-5.303 2.794-12.021-.994-16.913-3.79-4.894-10.197-6.957-16.126-5.197-25.969 7.703-49.883 21.903-69.156 41.066-31.094 30.915-48.218 72.024-48.218 115.755s17.124 84.839 48.217 115.752c32.068 31.885 74.178 47.824 116.301 47.82 6.751-.001 13.503-.416 20.213-1.236 9.394-2.535 18.924-4.564 28.54-6.075 24.733-7.589 48.011-21.084 67.548-40.51 19.284-19.173 33.575-42.967 41.329-68.81 1.778-5.921-.261-12.326-5.134-16.132z"/><path d="m429.193 309.51c-7.846 0-15.363 6.899-15 15 .364 8.127 6.591 15 15 15 7.846 0 15.363-6.899 15-15-.364-8.127-6.59-15-15-15z"/></g></svg>